<svg width="64" height="64" viewBox="0 0 64 64" xmlns="http://www.w3.org/2000/svg">
  <defs>
    <linearGradient id="grad1" x1="0%" y1="0%" x2="100%" y2="100%">
      <stop offset="0%" style="stop-color:#667eea;stop-opacity:1" />
      <stop offset="100%" style="stop-color:#764ba2;stop-opacity:1" />
    </linearGradient>
  </defs>
  
  <!-- Background circle -->
  <circle cx="32" cy="32" r="28" fill="url(#grad1)" stroke="#333" stroke-width="2"/>
  
  <!-- Neural network representation -->
  <g transform="translate(16, 16)">
    <!-- Input layer -->
    <circle cx="4" cy="8" r="3" fill="#fff" stroke="#333" stroke-width="1"/>
    <circle cx="4" cy="16" r="3" fill="#fff" stroke="#333" stroke-width="1"/>
    <circle cx="4" cy="24" r="3" fill="#fff" stroke="#333" stroke-width="1"/>
    
    <!-- Hidden layer -->
    <circle cx="16" cy="6" r="3" fill="#fff" stroke="#333" stroke-width="1"/>
    <circle cx="16" cy="14" r="3" fill="#fff" stroke="#333" stroke-width="1"/>
    <circle cx="16" cy="22" r="3" fill="#fff" stroke="#333" stroke-width="1"/>
    <circle cx="16" cy="26" r="3" fill="#fff" stroke="#333" stroke-width="1"/>
    
    <!-- Output layer -->
    <circle cx="28" cy="12" r="3" fill="#fff" stroke="#333" stroke-width="1"/>
    <circle cx="28" cy="20" r="3" fill="#fff" stroke="#333" stroke-width="1"/>
    
    <!-- Connection lines -->
    <line x1="7" y1="8" x2="13" y2="6" stroke="#333" stroke-width="1"/>
    <line x1="7" y1="8" x2="13" y2="14" stroke="#333" stroke-width="1"/>
    <line x1="7" y1="16" x2="13" y2="14" stroke="#333" stroke-width="1"/>
    <line x1="7" y1="16" x2="13" y2="22" stroke="#333" stroke-width="1"/>
    <line x1="7" y1="24" x2="13" y2="22" stroke="#333" stroke-width="1"/>
    <line x1="7" y1="24" x2="13" y2="26" stroke="#333" stroke-width="1"/>
    
    <line x1="19" y1="6" x2="25" y2="12" stroke="#333" stroke-width="1"/>
    <line x1="19" y1="14" x2="25" y2="12" stroke="#333" stroke-width="1"/>
    <line x1="19" y1="22" x2="25" y2="20" stroke="#333" stroke-width="1"/>
    <line x1="19" y1="26" x2="25" y2="20" stroke="#333" stroke-width="1"/>
  </g>
</svg> 