<svg width="466" height="98" viewBox="0 0 466 98" fill="none" xmlns="http://www.w3.org/2000/svg">
<path d="M0.000154106 11.2268L61.7223 0V22.454L0 33.6808L0.000154106 11.2268Z" fill="url(#paint0_linear_71_86)"/>
<path d="M62.0646 29.7557V91.5043L39.6204 98L39.6202 35.3692L62.0646 29.7557Z" fill="url(#paint1_linear_71_86)"/>
<path d="M39.2778 16.8408L101 5.61399V28.068L39.2777 39.2948L39.2778 16.8408Z" fill="url(#paint2_linear_71_86)"/>
<path d="M80.7358 90.9999V45.5599H112.352V53.7519H90.4638V64.1839H111.584V72.2479H90.4638V82.8079H112.864V90.9999H80.7358Z" fill="url(#paint3_linear_71_86)"/>
<path d="M120.173 90.9999V45.5599H130.925L148.973 76.9199V45.5599H158.701V90.9999H147.821L129.901 60.7279V90.9999H120.173Z" fill="url(#paint4_linear_71_86)"/>
<path d="M185.157 92.0239C181.232 92.0239 177.861 91.3626 175.045 90.0399C172.229 88.7172 170.032 86.8612 168.453 84.4719C166.875 82.0826 165.979 79.2666 165.765 76.0239L175.557 75.5759C175.813 77.3679 176.325 78.9039 177.093 80.1839C177.904 81.4212 178.971 82.3599 180.293 82.9999C181.659 83.6399 183.323 83.9599 185.285 83.9599C186.907 83.9599 188.272 83.7679 189.381 83.3839C190.533 82.9999 191.408 82.4239 192.005 81.6559C192.603 80.8452 192.901 79.8639 192.901 78.7119C192.901 77.6452 192.645 76.7279 192.133 75.9599C191.621 75.1492 190.64 74.4239 189.189 73.7839C187.739 73.1012 185.605 72.4399 182.789 71.7999C178.907 70.9039 175.771 69.9012 173.381 68.7919C171.035 67.6826 169.328 66.2959 168.261 64.6319C167.195 62.9252 166.661 60.7919 166.661 58.2319C166.661 55.5012 167.323 53.1119 168.645 51.0639C170.011 49.0159 171.973 47.4159 174.533 46.2639C177.093 45.1119 180.144 44.5359 183.685 44.5359C187.44 44.5359 190.619 45.1972 193.221 46.5199C195.824 47.8426 197.851 49.6559 199.301 51.9599C200.795 54.2639 201.691 56.9092 201.989 59.8959L192.261 60.4079C192.133 58.8292 191.707 57.4639 190.981 56.3119C190.256 55.1172 189.275 54.1999 188.037 53.5599C186.8 52.9199 185.307 52.5999 183.557 52.5999C181.339 52.5999 179.589 53.0906 178.309 54.0719C177.072 55.0532 176.453 56.3332 176.453 57.9119C176.453 59.0212 176.731 59.9599 177.285 60.7279C177.883 61.4532 178.843 62.0932 180.165 62.6479C181.531 63.2026 183.451 63.7359 185.925 64.2479C190.149 65.1012 193.477 66.1892 195.909 67.5119C198.384 68.7919 200.133 70.3279 201.157 72.1199C202.181 73.9119 202.693 75.9599 202.693 78.2639C202.693 81.0799 201.968 83.5332 200.517 85.6239C199.109 87.6719 197.083 89.2506 194.437 90.3599C191.835 91.4692 188.741 92.0239 185.157 92.0239Z" fill="url(#paint5_linear_71_86)"/>
<path d="M230.832 92.0239C226.224 92.0239 222.256 91.0639 218.928 89.1439C215.643 87.2239 213.104 84.4932 211.312 80.9519C209.563 77.4106 208.688 73.2079 208.688 68.3439C208.688 63.4799 209.563 59.2772 211.312 55.7359C213.104 52.1519 215.643 49.3999 218.928 47.4799C222.256 45.5172 226.224 44.5359 230.832 44.5359C235.44 44.5359 239.387 45.5172 242.672 47.4799C246 49.3999 248.539 52.1519 250.288 55.7359C252.08 59.2772 252.976 63.4799 252.976 68.3439C252.976 73.2079 252.08 77.4106 250.288 80.9519C248.539 84.4932 246 87.2239 242.672 89.1439C239.387 91.0639 235.44 92.0239 230.832 92.0239ZM230.768 83.8319C233.328 83.8319 235.504 83.2346 237.296 82.0399C239.131 80.8026 240.517 79.0319 241.456 76.7279C242.437 74.4239 242.928 71.6292 242.928 68.3439C242.928 65.0586 242.437 62.2639 241.456 59.9599C240.517 57.6132 239.131 55.8212 237.296 54.5839C235.504 53.3466 233.328 52.7279 230.768 52.7279C228.251 52.7279 226.096 53.3466 224.304 54.5839C222.512 55.8212 221.125 57.6132 220.144 59.9599C219.205 62.2639 218.736 65.0586 218.736 68.3439C218.736 71.6292 219.205 74.4239 220.144 76.7279C221.125 79.0319 222.512 80.8026 224.304 82.0399C226.139 83.2346 228.293 83.8319 230.768 83.8319Z" fill="url(#paint6_linear_71_86)"/>
<path d="M259.423 90.9999V45.5599H279.327C282.655 45.5599 285.535 46.1146 287.967 47.2239C290.442 48.3332 292.341 49.9119 293.663 51.9599C294.986 53.9652 295.647 56.3546 295.647 59.1279C295.647 61.2186 295.199 63.0746 294.303 64.6959C293.45 66.3172 292.255 67.6399 290.719 68.6639C289.226 69.6879 287.498 70.3279 285.535 70.5839L285.343 70.0079C288.373 70.0079 290.677 70.6692 292.255 71.9919C293.834 73.2719 294.73 75.2559 294.943 77.9439L296.095 90.9999H286.175L285.343 79.4799C285.215 77.7306 284.661 76.4506 283.679 75.6399C282.741 74.7866 281.119 74.3599 278.815 74.3599H269.151V90.9999H259.423ZM269.151 66.2319H278.239C280.586 66.2319 282.399 65.6986 283.679 64.6319C285.002 63.5226 285.663 61.9652 285.663 59.9599C285.663 57.9119 285.002 56.3759 283.679 55.3519C282.357 54.2852 280.437 53.7519 277.919 53.7519H269.151V66.2319Z" fill="url(#paint7_linear_71_86)"/>
<path d="M304.048 90.9999V45.5599H313.776V90.9999H304.048Z" fill="#B0AEB3"/>
<path d="M322.361 90.9999V45.5599H353.721V53.7519H326.713L332.089 48.1839V68.9839L326.713 64.7599H352.569V72.8239H326.713L332.089 68.5999V90.9999H322.361Z" fill="#B0AEB3"/>
<path d="M370.735 90.9999V73.3359L354.927 45.5599H365.679L375.599 63.8639L385.455 45.5599H396.207L380.463 73.3359V90.9999H370.735Z" fill="#B0AEB3"/>
<path d="M398.118 90.9999V81.2079H408.55V90.9999H398.118Z" fill="#B0AEB3"/>
<path d="M415.099 90.9999V56.6959H424.699V90.9999H415.099ZM414.907 52.4719V44.7919H424.827V52.4719H414.907Z" fill="#B0AEB3"/>
<path d="M448.026 91.7679C444.527 91.7679 441.477 91.0426 438.874 89.5919C436.271 88.0986 434.245 86.0079 432.794 83.3199C431.343 80.6319 430.618 77.4746 430.618 73.8479C430.618 70.2212 431.343 67.0852 432.794 64.4399C434.245 61.7519 436.271 59.6612 438.874 58.1679C441.477 56.6746 444.527 55.9279 448.026 55.9279C451.525 55.9279 454.575 56.6746 457.178 58.1679C459.781 59.6612 461.807 61.7519 463.258 64.4399C464.709 67.0852 465.434 70.2212 465.434 73.8479C465.434 77.4746 464.709 80.6319 463.258 83.3199C461.807 86.0079 459.781 88.0986 457.178 89.5919C454.575 91.0426 451.525 91.7679 448.026 91.7679ZM448.026 84.4079C450.415 84.4079 452.271 83.4906 453.594 81.6559C454.917 79.7786 455.578 77.1759 455.578 73.8479C455.578 70.5199 454.917 67.9386 453.594 66.1039C452.271 64.2266 450.415 63.2879 448.026 63.2879C445.637 63.2879 443.781 64.2266 442.458 66.1039C441.135 67.9386 440.474 70.5199 440.474 73.8479C440.474 77.1759 441.135 79.7786 442.458 81.6559C443.781 83.4906 445.637 84.4079 448.026 84.4079Z" fill="#B0AEB3"/>
<defs>
<linearGradient id="paint0_linear_71_86" x1="18.0709" y1="5.39735" x2="33.1156" y2="146.437" gradientUnits="userSpaceOnUse">
<stop stop-color="#A371D3"/>
<stop offset="0.32" stop-color="#54396F"/>
<stop offset="1" stop-color="#8257AC"/>
</linearGradient>
<linearGradient id="paint1_linear_71_86" x1="18.0709" y1="5.39735" x2="33.1156" y2="146.437" gradientUnits="userSpaceOnUse">
<stop stop-color="#A371D3"/>
<stop offset="0.32" stop-color="#54396F"/>
<stop offset="1" stop-color="#8257AC"/>
</linearGradient>
<linearGradient id="paint2_linear_71_86" x1="221.366" y1="12.9155" x2="293.27" y2="134.941" gradientUnits="userSpaceOnUse">
<stop stop-color="#8F9EBE"/>
<stop offset="1" stop-color="#5E48BF"/>
</linearGradient>
<linearGradient id="paint3_linear_71_86" x1="18.0709" y1="5.39735" x2="33.1156" y2="146.437" gradientUnits="userSpaceOnUse">
<stop stop-color="#69577A"/>
<stop offset="1" stop-color="#C0A0E0"/>
</linearGradient>
<linearGradient id="paint4_linear_71_86" x1="18.0709" y1="5.39735" x2="33.1156" y2="146.437" gradientUnits="userSpaceOnUse">
<stop stop-color="#69577A"/>
<stop offset="1" stop-color="#C0A0E0"/>
</linearGradient>
<linearGradient id="paint5_linear_71_86" x1="18.0709" y1="5.39735" x2="33.1156" y2="146.437" gradientUnits="userSpaceOnUse">
<stop stop-color="#69577A"/>
<stop offset="1" stop-color="#C0A0E0"/>
</linearGradient>
<linearGradient id="paint6_linear_71_86" x1="18.0709" y1="5.39735" x2="33.1156" y2="146.437" gradientUnits="userSpaceOnUse">
<stop stop-color="#69577A"/>
<stop offset="1" stop-color="#C0A0E0"/>
</linearGradient>
<linearGradient id="paint7_linear_71_86" x1="18.0709" y1="5.39735" x2="33.1156" y2="146.437" gradientUnits="userSpaceOnUse">
<stop stop-color="#69577A"/>
<stop offset="1" stop-color="#C0A0E0"/>
</linearGradient>
</defs>
</svg>
